<?xml version="1.0" encoding="UTF-8" standalone="no"?>
<!-- Created with Inkscape (http://www.inkscape.org/) -->

<svg
   version="1.1"
   id="svg41"
   width="416"
   height="416"
   viewBox="0 0 416 416"
   xmlns="http://www.w3.org/2000/svg"
   xmlns:svg="http://www.w3.org/2000/svg">
  <defs
     id="defs45" />
  <g
     id="g47">
    <g
       id="g684"
       transform="matrix(1.1197022,0,0,1.1197022,-27.297423,-11.433282)">
      <path
         style="fill:#f0ebb8;stroke-width:1.33333"
         d="m 224,309.33333 v -6.66666 h 6.66667 6.66666 V 309.33333 316 H 230.66667 224 Z m -160,-40 v -6.66666 h 6.666667 6.666666 V 269.33333 276 H 70.666667 64 Z M 224,256 v -6.66667 h 6.66667 6.66666 V 256 262.66667 H 230.66667 224 Z m 13.33333,-53.33333 V 196 H 244 h 6.66667 v 6.66667 6.66666 H 244 237.33333 Z"
         id="path724" />
      <path
         style="fill:#bdc2f9;stroke-width:1.33333"
         d="m 170.66667,296 v -6.66667 H 177.33333 184 V 296 v 6.66667 h -6.66667 -6.66666 z m 0,-53.33333 V 236 H 177.33333 184 v 6.66667 6.66666 h -6.66667 -6.66666 z m 26.66666,-80 V 156 H 204 h 6.66667 v 6.66667 6.66666 H 204 197.33333 Z"
         id="path722" />
      <path
         style="fill:#f7b0ad;stroke-width:1.33333"
         d="M 117.33333,282.66667 V 276 H 124 h 6.66667 v 6.66667 6.66666 H 124 117.33333 Z m 13.33334,-80 V 196 H 137.33333 144 v 6.66667 6.66666 h -6.66667 -6.66666 z"
         id="path720" />
      <path
         style="fill:#a5fca6;stroke-width:1.33333"
         d="M 277.33333,322.66667 V 316 H 284 h 6.66667 v 6.66667 6.66666 H 284 277.33333 Z m 0,-53.33334 v -6.66666 H 284 290.66667 V 269.33333 276 H 284 277.33333 Z"
         id="path718" />
      <path
         style="fill:#f9c374;stroke-width:1.33333"
         d="m 344,149.33333 v -6.66666 H 317.33333 290.66667 V 136 129.33333 H 264 237.33333 V 122.66667 116 H 210.66667 184 v -6.66667 -6.66666 H 157.33333 130.66667 V 96 89.333333 H 104 77.333333 V 82.666667 76 H 104 130.66667 v 6.666667 6.666666 H 157.33333 184 V 96 v 6.66667 h 26.66667 26.66666 V 109.33333 116 H 264 290.66667 v 6.66667 6.66666 H 317.33333 344 V 136 v 6.66667 h 13.33333 13.33334 V 149.33333 156 H 357.33333 344 Z"
         id="path716" />
      <path
         style="fill:#dbd844;stroke-width:1.33333"
         d="m 237.33333,309.33333 v -6.66666 H 244 250.66667 V 309.33333 316 H 244 237.33333 Z m -159.999997,-40 v -6.66666 H 84 90.666667 V 269.33333 276 H 84 77.333333 Z M 237.33333,256 v -6.66667 H 244 250.66667 V 256 262.66667 H 244 237.33333 Z m 13.33334,-53.33333 V 196 H 257.33333 264 v 6.66667 6.66666 h -6.66667 -6.66666 z"
         id="path714" />
      <path
         style="fill:#e0ac5e;stroke-width:1.33333"
         d="m 277.33333,349.33333 v -6.66666 H 250.66667 224 V 336 329.33333 H 197.33333 170.66667 V 322.66667 316 H 144 117.33333 v -6.66667 -6.66666 H 90.666667 64 V 296 289.33333 H 90.666667 117.33333 V 296 302.66667 H 144 170.66667 V 309.33333 316 H 197.33333 224 v 6.66667 6.66666 h 26.66667 26.66666 V 336 342.66667 H 304 330.66667 V 349.33333 356 H 304 277.33333 Z"
         id="path712" />
      <path
         style="fill:#ccca35;stroke-width:1.33333"
         d="m 250.66667,309.33333 v -6.66666 H 257.33333 264 V 309.33333 316 h -6.66667 -6.66666 z m -160.000003,-40 v -6.66666 H 97.333333 104 V 269.33333 276 H 97.333333 90.666667 Z M 250.66667,256 v -6.66667 H 257.33333 264 V 256 v 6.66667 h -6.66667 -6.66666 z M 264,202.66667 V 196 h 6.66667 6.66666 v 6.66667 6.66666 H 270.66667 264 Z"
         id="path710" />
      <path
         style="fill:#5e54f3;stroke-width:1.33333"
         d="m 184,296 v -6.66667 h 6.66667 6.66666 V 296 302.66667 H 190.66667 184 Z m 0,-53.33333 V 236 h 6.66667 6.66666 v 6.66667 6.66666 H 190.66667 184 Z m 26.66667,-80 V 156 H 217.33333 224 v 6.66667 6.66666 h -6.66667 -6.66666 z"
         id="path708" />
      <path
         style="fill:#c49346;stroke-width:1.33333"
         d="m 290.66667,296 v -6.66667 H 297.33333 304 V 296 v 6.66667 h -6.66667 -6.66666 z M 237.33333,282.66667 V 276 H 244 h 6.66667 v 6.66667 6.66666 H 244 237.33333 Z M 184,269.33333 v -6.66666 h 6.66667 6.66666 V 269.33333 276 H 190.66667 184 Z m -53.33333,-20 V 236 H 137.33333 144 v -6.66667 -6.66666 h 6.66667 6.66666 V 229.33333 236 H 150.66667 144 v 13.33333 13.33334 h -6.66667 -6.66666 z M 304,236 v -26.66667 h 6.66667 6.66666 V 176 142.66667 H 324 330.66667 V 176 209.33333 H 324 317.33333 V 236 262.66667 H 310.66667 304 Z M 77.333333,236 V 222.66667 H 84 90.666667 V 189.33333 156 H 97.333333 104 V 122.66667 89.333333 h 6.66667 6.66666 V 122.66667 156 H 110.66667 104 v 33.33333 33.33334 H 97.333333 90.666667 V 236 249.33333 H 84 77.333333 Z m 173.333337,0 V 222.66667 H 257.33333 264 V 236 249.33333 h -6.66667 -6.66666 z M 197.33333,209.33333 V 182.66667 H 204 210.66667 V 209.33333 236 H 204 197.33333 Z M 264,162.66667 v -33.33334 h 6.66667 6.66666 V 162.66667 196 H 270.66667 264 Z M 144,176 v -6.66667 h 6.66667 6.66666 V 136 102.66667 H 164 170.66667 V 136 169.33333 H 164 157.33333 V 176 182.66667 H 150.66667 144 Z m 66.66667,-46.66667 V 116 H 217.33333 224 v 13.33333 13.33334 h -6.66667 -6.66666 z"
         id="path706" />
      <path
         style="fill:#bbba21;stroke-width:1.33333"
         d="M 237.33333,322.66667 V 316 H 244 h 6.66667 v 6.66667 6.66666 H 244 237.33333 Z m 0,-26.66667 v -6.66667 H 244 250.66667 V 296 302.66667 H 244 237.33333 Z M 77.333333,282.66667 V 276 H 84 90.666667 v 6.66667 6.66666 H 84 77.333333 Z M 237.33333,269.33333 v -6.66666 H 244 250.66667 V 269.33333 276 H 244 237.33333 Z M 77.333333,256 v -6.66667 H 84 90.666667 V 256 262.66667 H 84 77.333333 Z M 237.33333,242.66667 V 236 H 244 h 6.66667 v 6.66667 6.66666 H 244 237.33333 Z M 250.66667,216 v -6.66667 H 257.33333 264 V 216 v 6.66667 h -6.66667 -6.66666 z m 0,-26.66667 v -6.66666 H 257.33333 264 V 189.33333 196 h -6.66667 -6.66666 z"
         id="path704" />
      <path
         style="fill:#4843e1;stroke-width:1.33333"
         d="m 197.33333,296 v -6.66667 H 204 210.66667 V 296 302.66667 H 204 197.33333 Z m 0,-53.33333 V 236 H 204 h 6.66667 v 6.66667 6.66666 H 204 197.33333 Z m 26.66667,-80 V 156 h 6.66667 6.66666 v 6.66667 6.66666 H 230.66667 224 Z"
         id="path702" />
      <path
         style="fill:#46b252;stroke-width:1.33333"
         d="M 290.66667,322.66667 V 316 H 297.33333 304 v 6.66667 6.66666 h -6.66667 -6.66666 z m 0,-53.33334 v -6.66666 H 297.33333 304 V 269.33333 276 h -6.66667 -6.66666 z"
         id="path700" />
      <path
         style="fill:#3335d5;stroke-width:1.33333"
         d="m 184,309.33333 v -6.66666 h 6.66667 6.66666 V 309.33333 316 H 190.66667 184 Z m 0,-26.66666 V 276 h 6.66667 6.66666 v 6.66667 6.66666 H 190.66667 184 Z M 184,256 v -6.66667 h 6.66667 6.66666 V 256 262.66667 H 190.66667 184 Z m 0,-26.66667 v -6.66666 h 6.66667 6.66666 V 229.33333 236 H 190.66667 184 Z M 210.66667,176 v -6.66667 H 217.33333 224 V 176 v 6.66667 h -6.66667 -6.66666 z m 0,-26.66667 v -6.66666 H 217.33333 224 V 149.33333 156 h -6.66667 -6.66666 z"
         id="path698" />
      <path
         style="fill:#c93236;stroke-width:1.33333"
         d="M 130.66667,282.66667 V 276 H 137.33333 144 v 6.66667 6.66666 h -6.66667 -6.66666 z m 13.33333,-80 V 196 h 6.66667 6.66666 v 6.66667 6.66666 H 150.66667 144 Z"
         id="path696" />
      <path
         style="fill:#339d42;stroke-width:1.33333"
         d="M 304,322.66667 V 316 h 6.66667 6.66666 v 6.66667 6.66666 H 310.66667 304 Z m 0,-53.33334 v -6.66666 h 6.66667 6.66666 V 269.33333 276 H 310.66667 304 Z"
         id="path694" />
      <path
         style="fill:#b11712;stroke-width:1.33333"
         d="M 144,282.66667 V 276 h 6.66667 6.66666 v 6.66667 6.66666 H 150.66667 144 Z m 13.33333,-80 V 196 H 164 h 6.66667 v 6.66667 6.66666 H 164 157.33333 Z"
         id="path692" />
      <path
         style="fill:#1e7a2f;stroke-width:1.33333"
         d="m 290.66667,336 v -6.66667 H 297.33333 304 V 336 v 6.66667 h -6.66667 -6.66666 z m 0,-26.66667 v -6.66666 H 297.33333 304 V 309.33333 316 h -6.66667 -6.66666 z m 0,-26.66666 V 276 H 297.33333 304 v 6.66667 6.66666 h -6.66667 -6.66666 z m 0,-26.66667 v -6.66667 H 297.33333 304 V 256 v 6.66667 h -6.66667 -6.66666 z"
         id="path690" />
      <path
         style="fill:#63161f;stroke-width:1.33333"
         d="m 130.66667,296 v -6.66667 H 137.33333 144 V 296 v 6.66667 h -6.66667 -6.66666 z m 0,-26.66667 v -6.66666 H 137.33333 144 V 269.33333 276 h -6.66667 -6.66666 z M 144,216 v -6.66667 h 6.66667 6.66666 V 216 222.66667 H 150.66667 144 Z m 0,-26.66667 v -6.66666 h 6.66667 6.66666 V 189.33333 196 H 150.66667 144 Z"
         id="path688" />
      <path
         style="fill:#2f2f2f;stroke-width:1.33333"
         d="M 277.33333,362.66667 V 356 H 250.66667 224 v -6.66667 -6.66666 H 197.33333 170.66667 V 336 329.33333 H 144 117.33333 V 322.66667 316 H 90.666667 64 v -6.66667 -6.66666 H 57.333333 50.666667 V 296 289.33333 H 57.333333 64 V 282.66667 276 h -6.666667 -6.666666 v -6.66667 -6.66666 H 57.333333 64 v -20 -20 h 6.666667 6.666666 V 189.33333 156 H 84 90.666667 V 129.33333 102.66667 H 84 77.333333 V 96 89.333333 H 70.666667 64 V 82.666667 76 h 6.666667 6.666666 V 69.333333 62.666667 H 104 130.66667 V 69.333333 76 H 157.33333 184 v 6.666667 6.666666 h 26.66667 26.66666 V 96 102.66667 H 264 290.66667 V 109.33333 116 H 317.33333 344 v 6.66667 6.66666 h 13.33333 13.33334 V 136 142.66667 H 377.33333 384 V 149.33333 156 h -6.66667 -6.66666 v 6.66667 6.66666 H 357.33333 344 v 20 20 h -6.66667 -6.66666 V 242.66667 276 H 324 317.33333 v 20 20 H 324 h 6.66667 v 13.33333 13.33334 H 337.33333 344 V 349.33333 356 h -6.66667 -6.66666 v 6.66667 6.66666 H 304 277.33333 Z m 53.33334,-13.33334 v -6.66666 H 317.33333 304 V 336 329.33333 h 6.66667 6.66666 V 322.66667 316 H 310.66667 304 v -20 -20 h 6.66667 6.66666 V 242.66667 209.33333 H 324 330.66667 V 176 142.66667 H 337.33333 344 V 149.33333 156 h 13.33333 13.33334 v -6.66667 -6.66666 H 357.33333 344 V 136 129.33333 H 317.33333 290.66667 V 122.66667 116 H 264 237.33333 v -6.66667 -6.66666 H 210.66667 184 V 96 89.333333 H 157.33333 130.66667 V 82.666667 76 H 104 77.333333 v 6.666667 6.666666 H 90.666667 104 V 122.66667 156 h -6.666667 -6.666666 v 33.33333 33.33334 H 84 77.333333 v 20 20 H 70.666667 64 V 269.33333 276 h 6.666667 6.666666 v 6.66667 6.66666 H 70.666667 64 V 296 302.66667 H 90.666667 117.33333 V 309.33333 316 H 144 170.66667 v 6.66667 6.66666 H 197.33333 224 V 336 v 6.66667 h 26.66667 26.66666 V 349.33333 356 H 304 330.66667 Z M 277.33333,336 v -6.66667 H 264 250.66667 V 322.66667 316 H 257.33333 264 v -6.66667 -6.66666 h -6.66667 -6.66666 v -20 -20 H 257.33333 264 V 236 209.33333 h 6.66667 6.66666 v -40 -40 H 284 290.66667 V 136 142.66667 H 304 317.33333 V 176 209.33333 H 310.66667 304 v 20 20 h -6.66667 -6.66666 V 256 262.66667 H 284 277.33333 V 269.33333 276 H 284 h 6.66667 v 20 20 H 284 277.33333 v 6.66667 6.66666 H 284 290.66667 V 336 342.66667 H 284 277.33333 Z M 224,322.66667 V 316 h -13.33333 -13.33334 v -6.66667 -6.66666 H 204 210.66667 V 296 289.33333 H 204 197.33333 v -20 -20 H 204 210.66667 V 216 182.66667 H 204 197.33333 v 20 20 H 190.66667 184 V 229.33333 236 h -6.66667 -6.66666 v 6.66667 6.66666 H 177.33333 184 v 20 20 h -6.66667 -6.66666 V 296 302.66667 H 177.33333 184 V 309.33333 316 h -6.66667 -6.66666 v -6.66667 -6.66666 H 157.33333 144 V 296 289.33333 h 6.66667 6.66666 V 282.66667 276 H 150.66667 144 v -20 -20 h -6.66667 -6.66666 v 20 20 H 124 117.33333 v 6.66667 6.66666 H 124 130.66667 V 296 302.66667 H 124 117.33333 V 296 289.33333 H 104 90.666667 V 282.66667 276 H 97.333333 104 v -6.66667 -6.66666 h -6.666667 -6.666666 v -20 -20 H 97.333333 104 V 189.33333 156 h 6.66667 6.66666 V 122.66667 89.333333 H 124 130.66667 V 96 102.66667 H 144 157.33333 V 136 169.33333 H 164 170.66667 V 136 102.66667 H 177.33333 184 V 109.33333 116 h 13.33333 13.33334 v 20 20 H 204 197.33333 v 6.66667 6.66666 H 204 210.66667 V 176 182.66667 H 217.33333 224 V 176 169.33333 h 6.66667 6.66666 V 162.66667 156 H 230.66667 224 v -20 -20 h 6.66667 6.66666 v 6.66667 6.66666 H 250.66667 264 V 156 182.66667 h -6.66667 -6.66666 V 189.33333 196 H 244 237.33333 v 6.66667 6.66666 H 244 250.66667 V 222.66667 236 H 244 237.33333 v 6.66667 6.66666 H 230.66667 224 V 256 v 6.66667 h 6.66667 6.66666 v 20 20 H 230.66667 224 V 309.33333 316 h 6.66667 6.66666 v 6.66667 6.66666 H 230.66667 224 Z m -66.66667,-100 V 209.33333 H 164 170.66667 V 202.66667 196 H 164 157.33333 V 182.66667 169.33333 H 150.66667 144 V 182.66667 196 h -6.66667 -6.66666 v 6.66667 6.66666 H 137.33333 144 V 222.66667 236 h 6.66667 6.66666 z"
         id="path686" />
    </g>
  </g>
</svg>
